HIERARCHY
ROOT Hips
{
	OFFSET 0.000000 0.000000 0.000000 
	CHANNELS 6 Xposition Yposition Zposition Zrotation Yrotation Xrotation
	JOINT LeftUpLeg
	{
		OFFSET 1.363060 -1.794630 0.839290 
		CHANNELS 3 Zrotation Yrotation Xrotation
		JOINT LeftLeg
		{
			OFFSET 2.448110 -6.726130 0.000000 
			CHANNELS 3 Zrotation Yrotation Xrotation
			JOINT LeftFoot
			{
				OFFSET 2.562200 -7.039590 0.000000 
				CHANNELS 3 Zrotation Yrotation Xrotation
				JOINT LeftToeBase
				{
					OFFSET 0.157640 -0.433110 2.322550 
					CHANNELS 3 Zrotation Yrotation Xrotation
					End Site
					{
						OFFSET 0.000000 0.000000 0.000000 
					}
				}
			}
		}
	}
	JOINT RightUpLeg
	{
		OFFSET -1.305520 -1.794630 0.839290 
		CHANNELS 3 Zrotation Yrotation Xrotation
		JOINT RightLeg
		{
			OFFSET -2.542530 -6.985550 0.000000 
			CHANNELS 3 Zrotation Yrotation Xrotation
			JOINT RightFoot
			{
				OFFSET -2.568260 -7.056230 0.000000 
				CHANNELS 3 Zrotation Yrotation Xrotation
				JOINT RightToeBase
				{
					OFFSET -0.164730 -0.452590 2.363150 
					CHANNELS 3 Zrotation Yrotation Xrotation
					End Site
					{
						OFFSET 0.000000 0.000000 0.000000 
					}
				}
			}
		}
	}
	JOINT Spine
	{
		OFFSET 0.028270 2.035590 -0.193380 
		CHANNELS 3 Zrotation Yrotation Xrotation
		JOINT Spine1
		{
			OFFSET 0.056720 2.048850 -0.042750 
			CHANNELS 3 Zrotation Yrotation Xrotation
			JOINT Neck1
			{
				OFFSET -0.054170 1.746240 0.172020 
				CHANNELS 3 Zrotation Yrotation Xrotation
				JOINT Head
				{
					OFFSET 0.104070 1.761360 -0.123970 
					CHANNELS 3 Zrotation Yrotation Xrotation
					End Site
					{
						OFFSET 0.000000 0.000000 0.000000 
					}
				}
			}
			JOINT LeftArm
			{
				OFFSET 3.362410 1.200890 -0.311210 
				CHANNELS 3 Zrotation Yrotation Xrotation
				JOINT LeftForeArm
				{
					OFFSET 4.983000 -0.000000 -0.000000 
					CHANNELS 3 Zrotation Yrotation Xrotation
					JOINT LeftHand
					{
						OFFSET 3.483560 -0.000000 -0.000000 
						CHANNELS 3 Zrotation Yrotation Xrotation
						JOINT LeftHandIndex1
						{
							OFFSET 0.715260 -0.000000 -0.000000 
							CHANNELS 3 Zrotation Yrotation Xrotation
							End Site
							{
								OFFSET 0.000000 0.000000 0.000000 
							}
						}
					}
				}
			}
			JOINT RightArm
			{
				OFFSET -3.136600 1.374050 -0.404650 
				CHANNELS 3 Zrotation Yrotation Xrotation
				JOINT RightForeArm
				{
					OFFSET -5.241900 -0.000000 -0.000000 
					CHANNELS 3 Zrotation Yrotation Xrotation
					JOINT RightHand
					{
						OFFSET -3.444170 -0.000000 -0.000000 
						CHANNELS 3 Zrotation Yrotation Xrotation
						JOINT RightHandIndex1
						{
							OFFSET -0.622530 -0.000000 -0.000000 
							CHANNELS 3 Zrotation Yrotation Xrotation
							End Site
							{
								OFFSET 0.000000 0.000000 0.000000 
							}
						}
					}
				}
			}
		}
	}
}
MOTION
Frames: 14
Frame Time: 0.041667
-0.639521 18.317263 5.678786 -0.195745 -2.469217 1.926663 -14.287010 -12.455413 -3.468601 0.563067 6.508167 21.302463 -1.093087 9.734068 -17.737317 8.142200 -16.222900 -53.073300 3.144390 1.801581 -1.676564 0.018195 0.621952 1.378114 0.273321 -0.866892 5.426322 0.000000 0.000000 0.000000 -9.661583 1.698715 14.031422 1.007008 1.559636 -13.006645 11.240510 -5.777001 26.485887 2.293700 -1.549600 8.269600 -93.957773 12.354864 15.802681 25.639983 -34.724129 -7.277918 0.797770 0.151644 6.796985 -7.125000 0.000000 0.000000 95.624869 -15.103208 14.488991 -32.661632 39.869032 -9.351976 1.083250 -3.215075 19.271903 7.125000 0.000000 0.000000 
-0.643832 18.318928 5.676925 -0.135419 -2.438237 2.046839 -14.291554 -12.389099 -3.582928 0.557247 6.505253 21.266323 -1.104070 9.744044 -17.639257 8.183700 -16.252700 -53.221600 3.147713 1.799949 -1.687474 0.018772 0.616565 1.376946 0.271750 -0.871452 5.422928 0.000000 0.000000 0.000000 -9.851374 1.716773 13.592373 1.082465 1.587001 -12.982355 11.198997 -5.832763 26.419988 2.288000 -1.591600 8.261000 -94.203949 12.357199 14.946557 25.410833 -34.502327 -7.175297 0.800062 0.122874 7.408807 -7.125000 0.000000 0.000000 95.679346 -15.211913 14.399174 -32.532487 39.744048 -9.282044 1.080736 -3.219062 19.428812 7.125000 0.000000 0.000000 
-0.647554 18.320006 5.676043 -0.092458 -2.390156 2.110520 -14.267488 -12.371859 -3.669831 0.558639 6.510011 21.263751 -1.098182 9.695852 -17.565891 8.174100 -16.245900 -53.187500 3.144388 1.800362 -1.688749 0.019467 0.616490 1.377226 0.271780 -0.871036 5.421904 0.000000 0.000000 0.000000 -10.126559 1.777527 13.491413 1.146165 1.622396 -12.980386 11.128615 -5.911751 26.216447 2.266500 -1.651800 8.231200 -94.546703 12.039513 13.629498 24.971032 -34.079387 -6.964936 0.798220 0.070416 8.585574 -7.125000 0.000000 0.000000 95.787044 -15.215001 14.254565 -32.343724 39.598011 -9.195223 1.072943 -3.230975 19.671996 7.125000 0.000000 0.000000 
-0.651375 18.319908 5.676435 -0.266555 -2.289836 1.894528 -14.158721 -12.298549 -3.671995 0.575454 6.479036 21.280068 -1.097004 9.620948 -17.418685 8.191600 -16.258400 -53.249900 3.139476 1.803803 -1.647201 0.016381 0.634703 1.379616 0.276891 -0.857106 5.435813 0.000000 0.000000 0.000000 -8.920024 1.791920 15.441517 0.897409 1.619725 -13.209562 10.891322 -5.920061 25.842723 2.239000 -1.707600 8.242100 -94.920046 11.485389 12.925058 24.702893 -33.872346 -6.832403 0.788786 0.046977 9.229681 -7.125000 0.000000 0.000000 95.662482 -14.778818 14.338331 -32.088677 39.457284 -9.083339 1.057229 -3.243587 19.852017 7.125000 0.000000 0.000000 
-0.654608 18.319908 5.678101 -0.603767 -2.158171 1.513190 -14.039733 -12.243743 -3.609048 0.601217 6.421421 21.315402 -1.105496 9.574255 -17.280801 8.252000 -16.301500 -53.465500 3.142810 1.808398 -1.585819 0.009725 0.661378 1.381930 0.284141 -0.838272 5.459138 0.000000 0.000000 0.000000 -6.268972 1.610197 18.727319 0.393770 1.572618 -13.500369 10.311311 -5.796644 25.314673 2.164600 -1.745000 8.277700 -95.028135 11.344112 14.215029 25.177562 -34.436973 -7.048249 0.776764 0.109898 7.995907 -7.125000 0.000000 0.000000 95.336110 -14.011798 14.575402 -31.811562 39.349460 -8.973607 1.040443 -3.259449 20.037484 7.125000 0.000000 0.000000 
-0.657449 18.320691 5.680648 -0.811773 -2.045920 1.382114 -13.937382 -12.244174 -3.619500 0.616110 6.395603 21.338601 -1.099506 9.503212 -17.191662 8.262100 -16.308700 -53.501300 3.149533 1.809678 -1.563542 0.006232 0.670926 1.381977 0.286642 -0.832439 5.469141 0.000000 0.000000 0.000000 -4.827894 1.459362 20.227553 0.156450 1.552047 -13.563067 9.861753 -5.745588 25.105891 2.094000 -1.783300 8.320900 -95.484324 10.249768 13.066204 23.494659 -32.765979 -6.289091 0.801575 -0.005448 9.271083 -7.125000 0.000000 0.000000 95.192350 -13.641359 14.662852 -31.633921 39.270580 -8.910395 1.032642 -3.276346 20.224569 7.125000 0.000000 0.000000 
-0.660584 18.321965 5.684175 -0.879451 -1.968006 1.402898 -13.860517 -12.257479 -3.665256 0.621576 6.393754 21.346806 -1.084616 9.423306 -17.140671 8.238600 -16.291900 -53.417500 3.151206 1.809884 -1.560483 0.005594 0.672284 1.381923 0.287019 -0.831699 5.470748 0.000000 0.000000 0.000000 -4.551603 1.447612 20.484531 0.077652 1.554230 -13.534220 9.924717 -5.852083 25.129186 2.112500 -1.832300 8.365000 -95.670052 10.070890 12.503996 23.067448 -32.330708 -6.103974 0.805067 -0.047695 9.957236 -7.125000 0.000000 0.000000 95.175898 -13.583614 14.719129 -31.570485 39.225492 -8.884419 1.035555 -3.282631 20.288699 7.125000 0.000000 0.000000 
-0.664013 18.321965 5.688779 -0.892042 -1.918447 1.373136 -13.842929 -12.216715 -3.668007 0.627278 6.389044 21.353011 -1.065087 9.331468 -17.104915 8.227800 -16.284300 -53.379200 3.151219 1.810507 -1.555977 0.005089 0.674547 1.382106 0.287660 -0.830066 5.472626 0.000000 0.000000 0.000000 -4.325631 1.457373 20.793240 0.010657 1.570688 -13.527505 10.244781 -6.041875 25.081554 2.193700 -1.903200 8.400800 -95.777955 10.098258 12.337572 23.086190 -32.373671 -6.118980 0.803704 -0.057030 10.321290 -7.125000 0.000000 0.000000 95.152421 -13.519737 14.796114 -31.541731 39.207488 -8.869005 1.038316 -3.283404 20.298271 7.125000 0.000000 0.000000 
-0.668225 18.320300 5.692893 -0.933897 -1.857279 1.355288 -13.799183 -12.123625 -3.705612 0.633465 6.384203 21.354112 -1.052896 9.241454 -16.993880 8.246300 -16.297500 -53.445200 3.155036 1.810027 -1.555073 0.004348 0.674485 1.381616 0.287606 -0.830725 5.473734 0.000000 0.000000 0.000000 -3.987514 1.440399 20.961176 -0.087365 1.576163 -13.507524 10.476330 -6.210333 25.023419 2.253000 -1.973400 8.417800 -95.706284 10.306309 12.790550 23.420106 -32.732629 -6.268356 0.801461 -0.030866 10.044911 -7.125000 0.000000 0.000000 95.124643 -13.499614 14.878956 -31.549268 39.208296 -8.867598 1.037980 -3.280794 20.263665 7.125000 0.000000 0.000000 
-0.673123 18.319908 5.695930 -0.860808 -1.792135 1.575461 -13.740640 -12.105656 -3.840832 0.626065 6.413508 21.340052 -1.053700 9.224805 -16.905016 8.277600 -16.319700 -53.556400 3.158264 1.806208 -1.581289 0.006743 0.661223 1.379931 0.283987 -0.840886 5.463745 0.000000 0.000000 0.000000 -4.927952 1.572589 19.443883 -0.011314 1.588835 -13.393696 10.872894 -6.466573 25.428828 2.308000 -2.039500 8.452600 -95.149584 11.416915 14.226529 24.732475 -34.007913 -6.841445 0.785383 0.073555 8.805663 -7.125000 0.000000 0.000000 95.295589 -13.893680 14.766175 -31.652146 39.209149 -8.895753 1.033065 -3.268461 20.233540 7.125000 0.000000 0.000000 
-0.676454 18.319320 5.701025 -0.556199 -1.788865 1.943995 -13.771492 -12.096886 -3.942236 0.607748 6.478972 21.322874 -1.042976 9.215898 -16.911307 8.263700 -16.309800 -53.507000 3.153387 1.801595 -1.639490 0.013519 0.635607 1.377847 0.277091 -0.858759 5.440929 0.000000 0.000000 0.000000 -7.636001 1.859820 16.233177 0.426686 1.655859 -13.146561 11.571675 -6.867577 26.211036 2.393800 -2.116300 8.518300 -94.661739 11.624630 14.037935 23.217316 -32.323936 -6.163562 0.830592 -0.009615 9.322632 -7.125000 0.000000 0.000000 95.759895 -14.658816 14.413553 -31.807330 39.213231 -8.943060 1.026286 -3.254925 20.263713 7.125000 0.000000 0.000000 
-0.677630 18.317459 5.708470 -0.379723 -1.778093 2.072238 -13.810341 -12.053473 -3.922589 0.600715 6.511053 21.316855 -1.030456 9.178699 -16.898946 8.248100 -16.298800 -53.451600 3.147783 1.800884 -1.668947 0.017198 0.624163 1.377467 0.274086 -0.866068 5.429474 0.000000 0.000000 0.000000 -9.140061 1.972672 14.657949 0.653320 1.690596 -12.989814 12.045993 -7.091541 26.557210 2.464500 -2.152200 8.558600 -94.448539 11.850137 13.912374 22.767306 -31.803440 -5.971586 0.846077 -0.039195 9.604458 -7.125000 0.000000 0.000000 96.031097 -15.013826 14.293717 -31.908862 39.245767 -8.973249 1.020509 -3.244678 20.248674 7.125000 0.000000 0.000000 
-0.678805 18.316675 5.714642 -0.408848 -1.693739 2.070707 -13.785762 -12.016742 -3.922522 0.603693 6.510273 21.316023 -1.037282 9.166568 -16.789010 8.268100 -16.312900 -53.522500 3.150649 1.800084 -1.671413 0.016992 0.622567 1.376925 0.273627 -0.867706 5.429050 0.000000 0.000000 0.000000 -9.036386 1.946093 14.592224 0.605666 1.673794 -12.935355 12.078772 -7.088034 26.558376 2.477000 -2.149100 8.560300 -94.556861 11.928090 13.587495 22.872594 -31.914978 -6.017173 0.841968 -0.042612 9.901258 -7.125000 0.000000 0.000000 95.982618 -15.017816 14.392575 -31.991181 39.302278 -9.009002 1.017331 -3.238341 20.133756 7.125000 0.000000 0.000000 
-0.681352 18.316479 5.719246 -0.422614 -1.579815 2.060406 -13.788958 -12.086040 -3.902137 0.604695 6.506717 21.317370 -1.045385 9.185836 -16.756299 8.277700 -16.319800 -53.557000 3.153900 1.799208 -1.670935 0.016488 0.622006 1.376338 0.273417 -0.868722 5.429687 0.000000 0.000000 0.000000 -8.807842 1.897081 14.680007 0.570963 1.652130 -12.891811 11.981150 -7.056742 26.596366 2.465100 -2.145900 8.574200 -94.628768 11.935790 13.426973 22.945817 -31.990740 -6.048040 0.839370 -0.042146 10.060286 -7.125000 0.000000 0.000000 95.894835 -14.967366 14.512185 -32.092763 39.387955 -9.063268 1.024331 -3.235967 19.929988 7.125000 0.000000 0.000000 
